<svg xmlns="http://www.w3.org/2000/svg" version="1.1" xmlns:xlink="http://www.w3.org/1999/xlink" xmlns:svgjs="http://svgjs.com/svgjs" width="1440" height="560" preserveAspectRatio="none" viewBox="0 0 1440 560"><g mask="url(&quot;#SvgjsMask1000&quot;)" fill="none"><rect width="1440" height="560" x="0" y="0" fill="#0e2a47"></rect><path d="M914.21 520.42 a47.65 47.65 0 1 0 95.3 0 a47.65 47.65 0 1 0 -95.3 0z" fill="#d3b714"></path><path d="M742.02 372.31 a13.54 13.54 0 1 0 27.08 0 a13.54 13.54 0 1 0 -27.08 0z" stroke="#e73635"></path><path d="M599.27 290.88 a5.96 5.96 0 1 0 11.92 0 a5.96 5.96 0 1 0 -11.92 0z" stroke="#e73635"></path><path d="M398.77 133.34a15.52 15.52 0 1 0 29.12 10.75z" stroke="#d3b714"></path><path d="M588.92 231.85L609.09 231.85L609.09 252.02L588.92 252.02z" stroke="#d3b714"></path><path d="M1033.38 407.96 a40.58 40.58 0 1 0 81.16 0 a40.58 40.58 0 1 0 -81.16 0z" fill="#037b0b"></path><path d="M1100.6 397.36 a13.25 13.25 0 1 0 26.5 0 a13.25 13.25 0 1 0 -26.5 0z" fill="#e73635"></path><path d="M548.07 420.79L581.4 420.79L581.4 449.3L548.07 449.3z" fill="#037b0b"></path><path d="M622.85 229.59a49 49 0 1 0 68.11 70.46z" stroke="#037b0b"></path><path d="M1190.43 403.36 a4.41 4.41 0 1 0 8.82 0 a4.41 4.41 0 1 0 -8.82 0z" stroke="#037b0b"></path><path d="M344.87 135.07 a15.5 15.5 0 1 0 31 0 a15.5 15.5 0 1 0 -31 0z" stroke="#037b0b"></path><path d="M835.35 295.94 a0.65 0.65 0 1 0 1.3 0 a0.65 0.65 0 1 0 -1.3 0z" stroke="#037b0b"></path><path d="M1114.84 474.28L1162.8 474.28L1162.8 522.24L1114.84 522.24z" stroke="#e73635"></path><path d="M1338.97 549.62 a12.8 12.8 0 1 0 25.6 0 a12.8 12.8 0 1 0 -25.6 0z" fill="#037b0b"></path><path d="M395.5 332.72L443.09 332.72L443.09 380.31L395.5 380.31z" stroke="#d3b714"></path><path d="M306.64 383.1 a38.43 38.43 0 1 0 76.86 0 a38.43 38.43 0 1 0 -76.86 0z" fill="#d3b714"></path><path d="M1054.99 452.76 a41.98 41.98 0 1 0 83.96 0 a41.98 41.98 0 1 0 -83.96 0z" fill="#e73635"></path><path d="M737.12 393.14 a45.17 45.17 0 1 0 90.34 0 a45.17 45.17 0 1 0 -90.34 0z" fill="#e73635"></path><path d="M823.07 245.62L830.7 245.62L830.7 292.29L823.07 292.29z" fill="#e73635"></path><path d="M1343.88 498.28L1395.21 498.28L1395.21 549.61L1343.88 549.61z" fill="#e73635"></path><path d="M1258.37 52.36a24.77 24.77 0 1 0-45.36 19.93z" fill="#e73635"></path><path d="M150.28 143.35a45.47 45.47 0 1 0-60.56-67.85z" fill="#e73635"></path><path d="M1179.39 445.15L1229.8 445.15L1229.8 495.56L1179.39 495.56z" stroke="#e73635"></path><path d="M303.53 451.35a48.76 48.76 0 1 0 66.44-71.38z" stroke="#d3b714"></path><path d="M994.85 253.85L1002.13 253.85L1002.13 261.13L994.85 261.13z" fill="#d3b714"></path><path d="M436.65 273.86L442.85 273.86L442.85 325.37L436.65 325.37z" stroke="#d3b714"></path><path d="M186.02 223.21L202.97 223.21L202.97 228.87L186.02 228.87z" stroke="#d3b714"></path><path d="M878.65 82.22L895.53 82.22L895.53 86.92L878.65 86.92z" fill="#e73635"></path><path d="M1108.67 235.75L1151.95 235.75L1151.95 279.03L1108.67 279.03z" stroke="#037b0b"></path><path d="M86.6 471.98 a47.21 47.21 0 1 0 94.42 0 a47.21 47.21 0 1 0 -94.42 0z" fill="#d3b714"></path><path d="M736.22 19.09 a20.41 20.41 0 1 0 40.82 0 a20.41 20.41 0 1 0 -40.82 0z" stroke="#e73635"></path><path d="M900.94 540.16 a6.41 6.41 0 1 0 12.82 0 a6.41 6.41 0 1 0 -12.82 0z" fill="#d3b714"></path><path d="M794.46 465.48L795.61 465.48L795.61 484.49L794.46 484.49z" stroke="#e73635"></path></g><defs><mask id="SvgjsMask1000"><rect width="1440" height="560" fill="#ffffff"></rect></mask></defs></svg>