<?xml version="1.0"?>
<svg version="1.1" xmlns="http://www.w3.org/2000/svg" width="400" height="300" style=""><path fill="#24e813" d="M49.5,181c0,9.1-1.9,16-7,20c-3.3,2.6-8.1,4-14.6,4c-1.8,0-5-0.3-7.2-0.7c-1.2-0.2-1.6-0.8-1.6-1.6c0-0.3,0-0.6,0.1-1l1-5.6c0.2-0.9,0.5-1.6,1.7-1.6c0.2,0,0.4,0.1,0.7,0.1c1.8,0.3,3.8,0.6,5.3,0.6c2.6,0,5.3-0.9,6.7-2.7c1.4-1.9,2.1-5,2.1-9.3l0-40l-11.3,0c-1.6,0-2.1-1-2.1-2.2l0-4.1c0-1.4,0.7-2.1,2.1-2.1l21.7,0c1.5,0,2.4,0.9,2.4,2.3l0,43.9z M97.35,181c0,9.1-1.9,16-7,20c-3.3,2.6-8.1,4-14.6,4c-1.8,0-5-0.3-7.2-0.7c-1.2-0.2-1.6-0.8-1.6-1.6c0-0.3,0-0.6,0.1-1l1-5.6c0.2-0.9,0.5-1.6,1.7-1.6c0.2,0,0.4,0.1,0.7,0.1c1.8,0.3,3.8,0.6,5.3,0.6c2.6,0,5.3-0.9,6.7-2.7c1.4-1.9,2.1-5,2.1-9.3l0-40l-11.3,0c-1.6,0-2.1-1-2.1-2.2l0-4.1c0-1.4,0.7-2.1,2.1-2.1l21.7,0c1.5,0,2.4,0.9,2.4,2.3l0,43.9z"/><path fill="#" d=""/></svg>
