<svg width="1061.505078125px" height="107.63486328124999px" xmlns="http://www.w3.org/2000/svg" viewBox="-280.7525390625 21.182568359375004 1061.505078125 107.63486328124999" style="background: rgb(255, 255, 255);" preserveAspectRatio="xMidYMid"><defs><linearGradient id="editing-sticker-gradient" x1="0.5" y1="0.2" x2="0.5" y2="0.8"><stop offset="0" stop-color="#d85cbc"></stop><stop offset="1" stop-color="#32b22d"></stop></linearGradient><filter id="editing-sticker" x="-100%" y="-100%" width="300%" height="300%"><feMorphology operator="erode" radius="1" in="SourceAlpha" result="alpha-erode"></feMorphology><feConvolveMatrix order="3,3" divisor="1" kernelMatrix="0 1 0 1 1 1 0 1 0" in="alpha-erode" result="alpha-round"></feConvolveMatrix><feMorphology operator="dilate" radius="3.5" in="alpha-round" result="dilate-shadow"></feMorphology><feGaussianBlur in="dilate-shadow" stdDeviation="1.5" result="shadow"></feGaussianBlur><feFlood flood-color="#fff" result="flood-sticker"></feFlood><feComposite operator="in" in="flood-sticker" in2="alpha-round" result="comp-sticker"></feComposite><feMorphology operator="dilate" radius="3" in="comp-sticker" result="morph-sticker"></feMorphology><feConvolveMatrix order="3,3" divisor="1" kernelMatrix="0 1 0 1 1 1 0 1 0" in="morph-sticker" result="sticker"></feConvolveMatrix><feMerge><feMergeNode in="shadow"></feMergeNode><feMergeNode in="sticker"></feMergeNode><feMergeNode in="SourceGraphic"></feMergeNode></feMerge></filter></defs><g filter="url(#editing-sticker)"><g transform="translate(-130.25500002503395, 98.93499946594238)"><path d="M13.89-41.02L13.63-13.57L13.76-7.55L13.76-7.55Q13.76-2.69 11.33 0.48L11.33 0.48L11.33 0.48Q8.90 3.65 2.88 6.53L2.88 6.53L0.90 3.65L0.90 3.01L0.90 3.01Q5.31 0.64 7.17-1.66L7.17-1.66L7.17-1.66Q9.02-3.97 9.02-7.49L9.02-7.49L9.02-13.06L8.77-36.86L0.90-36.80L0.38-37.25L0.70-41.02L13.89-41.02ZM37.06-32.26L37.06-32.26Q44.03-32.26 47.78-28.16L47.78-28.16L47.78-28.16Q51.52-24.06 51.52-16.58L51.52-16.58L51.52-16.58Q51.52-8.45 47.52-4L47.52-4L47.52-4Q43.52 0.45 36.10 0.45L36.10 0.45L36.10 0.45Q29.18 0.45 25.41-3.74L25.41-3.74L25.41-3.74Q21.63-7.94 21.63-15.68L21.63-15.68L21.63-15.68Q21.63-23.62 25.66-27.94L25.66-27.94L25.66-27.94Q29.70-32.26 37.06-32.26L37.06-32.26ZM36.61-28.22L36.61-28.22Q31.55-28.22 29.09-25.34L29.09-25.34L29.09-25.34Q26.62-22.46 26.62-16.26L26.62-16.26L26.62-16.26Q26.62-9.60 29.06-6.59L29.06-6.59L29.06-6.59Q31.49-3.58 36.48-3.58L36.48-3.58L36.48-3.58Q41.60-3.58 44.10-6.53L44.10-6.53L44.10-6.53Q46.59-9.47 46.59-15.74L46.59-15.74L46.59-15.74Q46.59-22.21 44.13-25.22L44.13-25.22L44.13-25.22Q41.66-28.22 36.61-28.22L36.61-28.22ZM69.57-32.19L69.57-32.19Q73.47-32.19 77.38-30.66L77.38-30.66L76.54-25.92L75.78-25.73L75.78-25.73Q73.98-27.14 72.38-27.81L72.38-27.81L72.38-27.81Q70.78-28.48 69.06-28.48L69.06-28.48L69.06-28.48Q66.30-28.48 64.70-27.04L64.70-27.04L64.70-27.04Q63.10-25.60 63.10-23.74L63.10-23.74L63.10-23.74Q63.10-21.89 64.67-20.74L64.67-20.74L64.67-20.74Q66.24-19.58 69.50-18.18L69.50-18.18L69.50-18.18Q72.38-16.90 74.08-15.87L74.08-15.87L74.08-15.87Q75.78-14.85 77.02-13.15L77.02-13.15L77.02-13.15Q78.27-11.46 78.27-9.02L78.27-9.02L78.27-9.02Q78.27-6.53 76.93-4.38L76.93-4.38L76.93-4.38Q75.58-2.24 72.99-0.93L72.99-0.93L72.99-0.93Q70.40 0.38 66.82 0.38L66.82 0.38L66.82 0.38Q64.58 0.38 62.11-0.16L62.11-0.16L62.11-0.16Q59.65-0.70 57.54-1.79L57.54-1.79L58.11-6.85L58.75-7.10L58.75-7.10Q60.54-5.31 62.94-4.32L62.94-4.32L62.94-4.32Q65.34-3.33 67.39-3.33L67.39-3.33L67.39-3.33Q70.08-3.33 71.81-4.77L71.81-4.77L71.81-4.77Q73.54-6.21 73.54-8.26L73.54-8.26L73.54-8.26Q73.54-10.18 71.97-11.33L71.97-11.33L71.97-11.33Q70.40-12.48 67.07-14.02L67.07-14.02L67.07-14.02Q64.32-15.23 62.56-16.26L62.56-16.26L62.56-16.26Q60.80-17.28 59.58-18.98L59.58-18.98L59.58-18.98Q58.37-20.67 58.37-23.10L58.37-23.10L58.37-23.10Q58.37-25.66 59.74-27.71L59.74-27.71L59.74-27.71Q61.12-29.76 63.65-30.98L63.65-30.98L63.65-30.98Q66.18-32.19 69.57-32.19L69.57-32.19ZM98.30-3.84L106.82-4.10L107.20-3.71L106.75 0L87.36 0L87.55-9.60L87.36-31.87L106.88-31.87L107.20-31.49L106.82-27.78L98.75-28.03L92.10-27.97L92.03-18.30L98.37-18.24L103.94-18.43L104.26-17.98L103.87-14.21L97.98-14.40L92.03-14.34L91.97-9.98L92.03-3.90L98.30-3.84ZM126.08-31.94L126.08-31.94Q131.14-31.94 133.86-29.50L133.86-29.50L133.86-29.50Q136.58-27.07 136.58-22.46L136.58-22.46L136.58-22.46Q136.58-17.09 133.15-14.05L133.15-14.05L133.15-14.05Q129.73-11.01 123.71-11.01L123.71-11.01L119.81-11.01L119.81-9.98L119.94 0L115.20 0L115.39-9.60L115.20-31.87L126.08-31.94ZM125.25-14.72L125.25-14.72Q131.58-15.81 131.58-22.08L131.58-22.08L131.58-22.08Q131.58-25.09 129.89-26.56L129.89-26.56L129.89-26.56Q128.19-28.03 124.80-28.16L124.80-28.16L119.94-28.10L119.87-14.85L125.25-14.72ZM171.71-31.87L171.52-9.98L171.65 0L166.91 0L167.10-9.60L167.04-13.95L149.70-13.89L149.63-9.98L149.76 0L145.02 0L145.22-9.60L145.02-31.87L149.82-31.87L149.70-18.18L158.34-18.11L167.04-18.18L166.91-31.87L171.71-31.87ZM208.58-41.34L208.58-41.34Q215.04-41.34 219.78-38.27L219.78-38.27L218.75-33.60L218.18-33.47L218.18-33.47Q213.89-37.06 208.32-37.06L208.32-37.06L208.32-37.06Q202.24-37.06 198.98-32.86L198.98-32.86L198.98-32.86Q195.71-28.67 195.71-20.61L195.71-20.61L195.71-20.61Q195.71-12.48 198.98-8.19L198.98-8.19L198.98-8.19Q202.24-3.90 208.19-3.90L208.19-3.90L208.19-3.90Q211.01-3.90 213.79-4.93L213.79-4.93L213.79-4.93Q216.58-5.95 218.88-7.81L218.88-7.81L219.52-7.49L219.07-2.62L219.07-2.62Q213.50 0.45 207.74 0.45L207.74 0.45L207.74 0.45Q199.49 0.45 194.94-4.90L194.94-4.90L194.94-4.90Q190.40-10.24 190.40-20.16L190.40-20.16L190.40-20.16Q190.40-30.34 195.14-35.84L195.14-35.84L195.14-35.84Q199.87-41.34 208.58-41.34L208.58-41.34ZM253.70-31.87L253.50-9.98L253.63 0L248.90 0L249.09-9.60L249.02-13.95L231.68-13.89L231.62-9.98L231.74 0L227.01 0L227.20-9.60L227.01-31.87L231.81-31.87L231.68-18.18L240.32-18.11L249.02-18.18L248.90-31.87L253.70-31.87ZM269.95-31.87L269.76-9.98L269.89 0L265.15 0L265.34-9.60L265.15-31.87L269.95-31.87ZM308.35-32L308.16-9.54L308.22 0L303.10 0L286.34-24.32L286.02-24.32L285.95-10.62L286.08 0L281.73 0L281.92-9.41L281.79-31.87L286.85-31.87L303.62-7.55L304.06-7.55L303.94-31.68L308.35-32ZM330.82-3.84L339.33-4.10L339.71-3.71L339.26 0L319.87 0L320.06-9.60L319.87-31.87L339.39-31.87L339.71-31.49L339.33-27.78L331.26-28.03L324.61-27.97L324.54-18.30L330.88-18.24L336.45-18.43L336.77-17.98L336.38-14.21L330.50-14.40L324.54-14.34L324.48-9.98L324.54-3.90L330.82-3.84ZM378.37-31.87L381.63 0L377.34 0L376.64-9.73L374.91-24.45L374.53-24.45L365.38-3.58L361.60-3.58L352.96-24.45L352.58-24.45L350.91-10.11L350.02 0L345.92 0L349.44-31.87L355.01-31.87L356.61-27.07L363.58-9.92L363.97-9.92L371.26-27.33L372.93-31.87L378.37-31.87ZM402.37-3.84L410.88-4.10L411.26-3.71L410.82 0L391.42 0L391.62-9.60L391.42-31.87L410.94-31.87L411.26-31.49L410.88-27.78L402.82-28.03L396.16-27.97L396.10-18.30L402.43-18.24L408-18.43L408.32-17.98L407.94-14.21L402.05-14.40L396.10-14.34L396.03-9.98L396.10-3.90L402.37-3.84ZM433.92-12.86L433.92-12.86Q437.82-6.91 442.56-1.15L442.56-1.15L442.50-0.51L442.50-0.51Q439.81 0.32 438.08 0.45L438.08 0.45L437.25-0.06L437.25-0.06Q432.38-7.42 429.89-11.65L429.89-11.65L423.87-11.58L423.87-9.98L424.00 0L419.26 0L419.46-9.60L419.26-31.87L430.14-31.94L430.14-31.94Q435.20-31.94 437.92-29.57L437.92-29.57L437.92-29.57Q440.64-27.20 440.64-22.72L440.64-22.72L440.64-22.72Q440.64-19.46 438.88-16.90L438.88-16.90L438.88-16.90Q437.12-14.34 433.92-12.86L433.92-12.86ZM424.00-28.03L423.94-15.55L429.95-15.36L429.95-15.36Q435.65-16.96 435.65-22.34L435.65-22.34L435.65-22.34Q435.65-25.15 433.98-26.56L433.98-26.56L433.98-26.56Q432.32-27.97 428.93-28.10L428.93-28.10L424.00-28.03ZM461.95-3.84L470.46-4.10L470.85-3.71L470.40 0L451.01 0L451.20-9.60L451.01-31.87L470.53-31.87L470.85-31.49L470.46-27.78L462.40-28.03L455.74-27.97L455.68-18.30L462.02-18.24L467.58-18.43L467.90-17.98L467.52-14.21L461.63-14.40L455.68-14.34L455.62-9.98L455.68-3.90L461.95-3.84ZM509.50-31.87L512.77 0L508.48 0L507.78-9.73L506.05-24.45L505.66-24.45L496.51-3.58L492.74-3.58L484.10-24.45L483.71-24.45L482.05-10.11L481.15 0L477.06 0L480.58-31.87L486.14-31.87L487.74-27.07L494.72-9.92L495.10-9.92L502.40-27.33L504.06-31.87L509.50-31.87ZM541.25-41.02L540.99-13.57L541.12-7.55L541.12-7.55Q541.12-2.69 538.69 0.48L538.69 0.48L538.69 0.48Q536.26 3.65 530.24 6.53L530.24 6.53L528.26 3.65L528.26 3.01L528.26 3.01Q532.67 0.64 534.53-1.66L534.53-1.66L534.53-1.66Q536.38-3.97 536.38-7.49L536.38-7.49L536.38-13.06L536.13-36.86L528.26-36.80L527.74-37.25L528.06-41.02L541.25-41.02ZM563.90-3.84L572.42-4.10L572.80-3.71L572.35 0L552.96 0L553.15-9.60L552.96-31.87L572.48-31.87L572.80-31.49L572.42-27.78L564.35-28.03L557.70-27.97L557.63-18.30L563.97-18.24L569.54-18.43L569.86-17.98L569.47-14.21L563.58-14.40L557.63-14.34L557.57-9.98L557.63-3.90L563.90-3.84ZM595.46-12.86L595.46-12.86Q599.36-6.91 604.10-1.15L604.10-1.15L604.03-0.51L604.03-0.51Q601.34 0.32 599.62 0.45L599.62 0.45L598.78-0.06L598.78-0.06Q593.92-7.42 591.42-11.65L591.42-11.65L585.41-11.58L585.41-9.98L585.54 0L580.80 0L580.99-9.60L580.80-31.87L591.68-31.94L591.68-31.94Q596.74-31.94 599.46-29.57L599.46-29.57L599.46-29.57Q602.18-27.20 602.18-22.72L602.18-22.72L602.18-22.72Q602.18-19.46 600.42-16.90L600.42-16.90L600.42-16.90Q598.66-14.34 595.46-12.86L595.46-12.86ZM585.54-28.03L585.47-15.55L591.49-15.36L591.49-15.36Q597.18-16.96 597.18-22.34L597.18-22.34L597.18-22.34Q597.18-25.15 595.52-26.56L595.52-26.56L595.52-26.56Q593.86-27.97 590.46-28.10L590.46-28.10L585.54-28.03ZM623.49-3.84L632-4.10L632.38-3.71L631.94 0L612.54 0L612.74-9.60L612.54-31.87L632.06-31.87L632.38-31.49L632-27.78L623.94-28.03L617.28-27.97L617.22-18.30L623.55-18.24L629.12-18.43L629.44-17.98L629.06-14.21L623.17-14.40L617.22-14.34L617.15-9.98L617.22-3.90L623.49-3.84ZM671.04-31.87L674.30 0L670.02 0L669.31-9.73L667.58-24.45L667.20-24.45L658.05-3.58L654.27-3.58L645.63-24.45L645.25-24.45L643.58-10.11L642.69 0L638.59 0L642.11-31.87L647.68-31.87L649.28-27.07L656.26-9.92L656.64-9.92L663.94-27.33L665.60-31.87L671.04-31.87ZM688.90-31.87L688.70-9.98L688.83 0L684.10 0L684.29-9.60L684.10-31.87L688.90-31.87ZM714.30-31.87L725.50 0L720.70 0L719.94-3.46L718.27-8.19L710.66-8.26L703.87-8.19L702.14-3.71L701.25 0L696.51 0L708.80-31.87L714.30-31.87ZM711.04-12.03L716.93-12.10L711.62-27.20L711.23-27.20L705.41-12.10L711.04-12.03ZM760.13-31.87L759.94-9.98L760.06 0L755.33 0L755.52-9.60L755.46-13.95L738.11-13.89L738.05-9.98L738.18 0L733.44 0L733.63-9.60L733.44-31.87L738.24-31.87L738.11-18.18L746.75-18.11L755.46-18.18L755.33-31.87L760.13-31.87Z" fill="url(#editing-sticker-gradient)" stroke="#bbcedd" stroke-width="0"></path></g></g><style>text {
  font-size: 64px;
  font-family: Arial Black;
  dominant-baseline: central;
  text-anchor: middle;
}</style></svg>