<svg xmlns="http://www.w3.org/2000/svg" version="1.1" xmlns:xlink="http://www.w3.org/1999/xlink" xmlns:svgjs="http://svgjs.com/svgjs" width="1440" height="560" preserveAspectRatio="none" viewBox="0 0 1440 560"><g mask="url(&quot;#SvgjsMask1000&quot;)" fill="none"><rect width="1440" height="560" x="0" y="0" fill="#0e2a47"></rect><g transform="translate(0, 0)" stroke-linecap="round"><path d="M260 110.4 L260 449.61" stroke-width="15" stroke="#dd1133"></path><path d="M280 171.94 L280 388.06" stroke-width="15" stroke="#dd1133"></path><path d="M300 203.03 L300 356.97" stroke-width="15" stroke="#3a7cc3"></path><path d="M320 189.22 L320 370.78" stroke-width="15" stroke="#dd1133"></path><path d="M340 209.88 L340 350.12" stroke-width="15" stroke="#3a7cc3"></path><path d="M360 227.76 L360 332.24" stroke-width="15" stroke="#3a7cc3"></path><path d="M380 160.94 L380 399.06" stroke-width="15" stroke="#3a7cc3"></path><path d="M400 221.95 L400 338.05" stroke-width="15" stroke="#dd1133"></path><path d="M420 177.41 L420 382.59" stroke-width="15" stroke="#dd1133"></path><path d="M440 196.82 L440 363.18" stroke-width="15" stroke="#dd1133"></path><path d="M460 252.41 L460 307.59" stroke-width="15" stroke="#3a7cc3"></path><path d="M480 250.16 L480 309.85" stroke-width="15" stroke="#dd1133"></path><path d="M500 245.7 L500 314.3" stroke-width="15" stroke="#3a7cc3"></path><path d="M520 106.22 L520 453.77" stroke-width="15" stroke="#3a7cc3"></path><path d="M540 185.45 L540 374.55" stroke-width="15" stroke="#3a7cc3"></path><path d="M560 147.87 L560 412.13" stroke-width="15" stroke="#dd1133"></path><path d="M580 119.19 L580 440.81" stroke-width="15" stroke="#dd1133"></path><path d="M600 224.95 L600 335.05" stroke-width="15" stroke="#dd1133"></path><path d="M620 186.51 L620 373.49" stroke-width="15" stroke="#dd1133"></path><path d="M640 172.38 L640 387.62" stroke-width="15" stroke="#3a7cc3"></path><path d="M660 223.51 L660 336.49" stroke-width="15" stroke="#dd1133"></path><path d="M680 124.57 L680 435.43" stroke-width="15" stroke="#dd1133"></path><path d="M700 136.04 L700 423.96" stroke-width="15" stroke="#dd1133"></path><path d="M720 201.24 L720 358.76" stroke-width="15" stroke="#3a7cc3"></path><path d="M740 204.96 L740 355.04" stroke-width="15" stroke="#dd1133"></path><path d="M760 221.36 L760 338.64" stroke-width="15" stroke="#3a7cc3"></path><path d="M780 114.95 L780 445.05" stroke-width="15" stroke="#3a7cc3"></path><path d="M800 195.74 L800 364.26" stroke-width="15" stroke="#3a7cc3"></path><path d="M820 203.7 L820 356.3" stroke-width="15" stroke="#3a7cc3"></path><path d="M840 256.07 L840 303.93" stroke-width="15" stroke="#dd1133"></path><path d="M860 247.78 L860 312.23" stroke-width="15" stroke="#3a7cc3"></path><path d="M880 180.2 L880 379.8" stroke-width="15" stroke="#dd1133"></path><path d="M900 109.05 L900 450.95" stroke-width="15" stroke="#dd1133"></path><path d="M920 249.48 L920 310.52" stroke-width="15" stroke="#dd1133"></path><path d="M940 234.93 L940 325.07" stroke-width="15" stroke="#dd1133"></path><path d="M960 184.59 L960 375.4" stroke-width="15" stroke="#dd1133"></path><path d="M980 184.05 L980 375.95" stroke-width="15" stroke="#dd1133"></path><path d="M1000 144.19 L1000 415.81" stroke-width="15" stroke="#3a7cc3"></path><path d="M1020 204.26 L1020 355.74" stroke-width="15" stroke="#3a7cc3"></path><path d="M1040 121.16 L1040 438.84" stroke-width="15" stroke="#3a7cc3"></path><path d="M1060 214.81 L1060 345.19" stroke-width="15" stroke="#dd1133"></path><path d="M1080 161.91 L1080 398.1" stroke-width="15" stroke="#3a7cc3"></path><path d="M1100 150.8 L1100 409.2" stroke-width="15" stroke="#3a7cc3"></path><path d="M1120 255.09 L1120 304.91" stroke-width="15" stroke="#dd1133"></path><path d="M1140 114.2 L1140 445.8" stroke-width="15" stroke="#dd1133"></path><path d="M1160 213.34 L1160 346.66" stroke-width="15" stroke="#3a7cc3"></path><path d="M1180 130.34 L1180 429.66" stroke-width="15" stroke="#3a7cc3"></path></g></g><defs><mask id="SvgjsMask1000"><rect width="1440" height="560" fill="#ffffff"></rect></mask></defs></svg>